<mxfile host="app.diagrams.net" modified="2022-04-04T23:41:47.905Z" agent="5.0 (Windows NT 10.0; Win64; x64) AppleWebKit/537.36 (KHTML, like Gecko) Chrome/100.0.4896.75 Safari/537.36" etag="q07btHhvBTgWZWzsRiMV" version="17.4.0" type="github" pages="2">
  <diagram id="z7mnrNAVXwUUSKZWm4tv" name="Page-1">
    <mxGraphModel dx="2067" dy="1858" grid="1" gridSize="10" guides="1" tooltips="1" connect="1" arrows="1" fold="1" page="1" pageScale="1" pageWidth="827" pageHeight="1169" math="0" shadow="0">
      <root>
        <mxCell id="0" />
        <mxCell id="1" parent="0" />
        <mxCell id="ov3n1KNiYPMTHViqGAF2-1" value="Blog" style="rounded=0;whiteSpace=wrap;html=1;" vertex="1" parent="1">
          <mxGeometry x="-543" y="-1020" width="140" height="60" as="geometry" />
        </mxCell>
        <mxCell id="ov3n1KNiYPMTHViqGAF2-16" style="edgeStyle=orthogonalEdgeStyle;rounded=0;orthogonalLoop=1;jettySize=auto;html=1;exitX=0.5;exitY=0;exitDx=0;exitDy=0;entryX=0.436;entryY=-0.017;entryDx=0;entryDy=0;entryPerimeter=0;dashed=1;" edge="1" parent="1" source="ov3n1KNiYPMTHViqGAF2-2" target="ov3n1KNiYPMTHViqGAF2-1">
          <mxGeometry relative="1" as="geometry" />
        </mxCell>
        <mxCell id="ov3n1KNiYPMTHViqGAF2-2" value="Usuário" style="rounded=0;whiteSpace=wrap;html=1;" vertex="1" parent="1">
          <mxGeometry x="-350" y="-1020" width="143.5" height="60" as="geometry" />
        </mxCell>
        <mxCell id="ov3n1KNiYPMTHViqGAF2-17" style="edgeStyle=orthogonalEdgeStyle;rounded=0;orthogonalLoop=1;jettySize=auto;html=1;exitX=0.5;exitY=0;exitDx=0;exitDy=0;entryX=0.5;entryY=1;entryDx=0;entryDy=0;endArrow=diamond;endFill=1;" edge="1" parent="1" source="ov3n1KNiYPMTHViqGAF2-3" target="ov3n1KNiYPMTHViqGAF2-8">
          <mxGeometry relative="1" as="geometry" />
        </mxCell>
        <mxCell id="ov3n1KNiYPMTHViqGAF2-3" value="Conteúdo" style="rounded=0;whiteSpace=wrap;html=1;" vertex="1" parent="1">
          <mxGeometry x="-543" y="-730" width="140" height="60" as="geometry" />
        </mxCell>
        <mxCell id="ov3n1KNiYPMTHViqGAF2-4" value="- titulo: Str&lt;br&gt;- data de criação: Date" style="rounded=0;whiteSpace=wrap;html=1;" vertex="1" parent="1">
          <mxGeometry x="-543" y="-960" width="140" height="60" as="geometry" />
        </mxCell>
        <mxCell id="ov3n1KNiYPMTHViqGAF2-5" value="- email: Str&lt;br&gt;&lt;span style=&quot;color: rgba(0 , 0 , 0 , 0) ; font-family: monospace ; font-size: 0px&quot;&gt;%3CmxGraphModel%3E%3Croot%3E%3CmxCell%20id%3D%220%22%2F%3E%3CmxCell%20id%3D%221%22%20parent%3D%220%22%2F%3E%3CmxCell%20id%3D%222%22%20value%3D%22-%20titulo%26lt%3Bbr%26gt%3B-%20data%20de%20cria%C3%A7%C3%A3o%26lt%3Bbr%26gt%3B-%20conteudo%22%20style%3D%22rounded%3D0%3BwhiteSpace%3Dwrap%3Bhtml%3D1%3B%22%20vertex%3D%221%22%20parent%3D%221%22%3E%3CmxGeometry%20x%3D%22-750%22%20y%3D%22-950%22%20width%3D%22120%22%20height%3D%2260%22%20as%3D%22geometry%22%2F%3E%3C%2FmxCell%3E%3C%2Froot%3E%3C%2FmxGraphModel%3E&lt;/span&gt;" style="rounded=0;whiteSpace=wrap;html=1;" vertex="1" parent="1">
          <mxGeometry x="-350" y="-960" width="143" height="60" as="geometry" />
        </mxCell>
        <mxCell id="ov3n1KNiYPMTHViqGAF2-6" value="- data da criação: Date&lt;br&gt;- texto: String" style="rounded=0;whiteSpace=wrap;html=1;" vertex="1" parent="1">
          <mxGeometry x="-543" y="-670" width="140" height="60" as="geometry" />
        </mxCell>
        <mxCell id="ov3n1KNiYPMTHViqGAF2-7" value="+ NotificarExclusao()" style="rounded=0;whiteSpace=wrap;html=1;" vertex="1" parent="1">
          <mxGeometry x="-350" y="-900" width="143" height="60" as="geometry" />
        </mxCell>
        <mxCell id="ov3n1KNiYPMTHViqGAF2-8" value="+ Blog()&lt;br&gt;+ Comentar()&lt;br&gt;+ CriarNota()&lt;br&gt;+ ExibirConteudo()&lt;br&gt;+ LerComentario()&lt;br&gt;+ LerNotas()&lt;br&gt;+ RemoverConteudo()" style="rounded=0;whiteSpace=wrap;html=1;" vertex="1" parent="1">
          <mxGeometry x="-543" y="-900" width="140" height="120" as="geometry" />
        </mxCell>
        <mxCell id="ov3n1KNiYPMTHViqGAF2-9" value="+ Conteudo()&lt;br&gt;+ ExibirConteudo()" style="rounded=0;whiteSpace=wrap;html=1;" vertex="1" parent="1">
          <mxGeometry x="-543" y="-610" width="140" height="60" as="geometry" />
        </mxCell>
        <mxCell id="ov3n1KNiYPMTHViqGAF2-19" style="edgeStyle=orthogonalEdgeStyle;rounded=0;orthogonalLoop=1;jettySize=auto;html=1;entryX=0;entryY=0.5;entryDx=0;entryDy=0;endArrow=block;endFill=0;" edge="1" parent="1" source="ov3n1KNiYPMTHViqGAF2-10" target="ov3n1KNiYPMTHViqGAF2-9">
          <mxGeometry relative="1" as="geometry" />
        </mxCell>
        <mxCell id="ov3n1KNiYPMTHViqGAF2-10" value="Nota" style="rounded=0;whiteSpace=wrap;html=1;" vertex="1" parent="1">
          <mxGeometry x="-643" y="-520" width="140" height="60" as="geometry" />
        </mxCell>
        <mxCell id="ov3n1KNiYPMTHViqGAF2-11" value="+ texto: String" style="rounded=0;whiteSpace=wrap;html=1;" vertex="1" parent="1">
          <mxGeometry x="-643" y="-460" width="140" height="60" as="geometry" />
        </mxCell>
        <mxCell id="ov3n1KNiYPMTHViqGAF2-18" style="edgeStyle=orthogonalEdgeStyle;rounded=0;orthogonalLoop=1;jettySize=auto;html=1;exitX=0.5;exitY=0;exitDx=0;exitDy=0;entryX=1;entryY=0.5;entryDx=0;entryDy=0;endArrow=block;endFill=0;" edge="1" parent="1" source="ov3n1KNiYPMTHViqGAF2-12" target="ov3n1KNiYPMTHViqGAF2-9">
          <mxGeometry relative="1" as="geometry" />
        </mxCell>
        <mxCell id="ov3n1KNiYPMTHViqGAF2-20" style="edgeStyle=orthogonalEdgeStyle;rounded=0;orthogonalLoop=1;jettySize=auto;html=1;exitX=0;exitY=0.5;exitDx=0;exitDy=0;entryX=1;entryY=0.5;entryDx=0;entryDy=0;endArrow=diamondThin;endFill=1;" edge="1" parent="1" source="ov3n1KNiYPMTHViqGAF2-12" target="ov3n1KNiYPMTHViqGAF2-10">
          <mxGeometry relative="1" as="geometry" />
        </mxCell>
        <mxCell id="ov3n1KNiYPMTHViqGAF2-12" value="Comentário" style="rounded=0;whiteSpace=wrap;html=1;" vertex="1" parent="1">
          <mxGeometry x="-443" y="-520" width="140" height="60" as="geometry" />
        </mxCell>
        <mxCell id="ov3n1KNiYPMTHViqGAF2-13" value="+ texto: String" style="rounded=0;whiteSpace=wrap;html=1;" vertex="1" parent="1">
          <mxGeometry x="-443" y="-460" width="140" height="60" as="geometry" />
        </mxCell>
        <mxCell id="ov3n1KNiYPMTHViqGAF2-14" value="+ Comentar()&lt;br&gt;+ Finalizar()&lt;br&gt;+ LerNota()" style="rounded=0;whiteSpace=wrap;html=1;" vertex="1" parent="1">
          <mxGeometry x="-643" y="-400" width="140" height="60" as="geometry" />
        </mxCell>
        <mxCell id="ov3n1KNiYPMTHViqGAF2-15" value="+ Finalizar()" style="rounded=0;whiteSpace=wrap;html=1;" vertex="1" parent="1">
          <mxGeometry x="-443" y="-400" width="140" height="60" as="geometry" />
        </mxCell>
        <mxCell id="ov3n1KNiYPMTHViqGAF2-21" value="0:varios" style="text;html=1;align=center;verticalAlign=middle;resizable=0;points=[];autosize=1;strokeColor=none;fillColor=none;" vertex="1" parent="1">
          <mxGeometry x="-203" y="-1010" width="60" height="20" as="geometry" />
        </mxCell>
        <mxCell id="ov3n1KNiYPMTHViqGAF2-22" value="1" style="text;html=1;align=center;verticalAlign=middle;resizable=0;points=[];autosize=1;strokeColor=none;fillColor=none;" vertex="1" parent="1">
          <mxGeometry x="-403" y="-1000" width="20" height="20" as="geometry" />
        </mxCell>
        <mxCell id="ov3n1KNiYPMTHViqGAF2-23" value="1...*" style="text;html=1;align=center;verticalAlign=middle;resizable=0;points=[];autosize=1;strokeColor=none;fillColor=none;" vertex="1" parent="1">
          <mxGeometry x="-403" y="-720" width="40" height="20" as="geometry" />
        </mxCell>
        <mxCell id="ov3n1KNiYPMTHViqGAF2-24" value="1...*" style="text;html=1;align=center;verticalAlign=middle;resizable=0;points=[];autosize=1;strokeColor=none;fillColor=none;" vertex="1" parent="1">
          <mxGeometry x="-683" y="-520" width="40" height="20" as="geometry" />
        </mxCell>
        <mxCell id="ov3n1KNiYPMTHViqGAF2-25" value="1...*" style="text;html=1;align=center;verticalAlign=middle;resizable=0;points=[];autosize=1;strokeColor=none;fillColor=none;" vertex="1" parent="1">
          <mxGeometry x="-303" y="-520" width="40" height="20" as="geometry" />
        </mxCell>
      </root>
    </mxGraphModel>
  </diagram>
  <diagram id="uB1jGyZl0aDvLDrUhKpE" name="Page-2">
    <mxGraphModel dx="1578" dy="876" grid="1" gridSize="10" guides="1" tooltips="1" connect="1" arrows="1" fold="1" page="1" pageScale="1" pageWidth="827" pageHeight="1169" math="0" shadow="0">
      <root>
        <mxCell id="0" />
        <mxCell id="1" parent="0" />
        <mxCell id="8WoS_qMKlVvMBO30Ixbd-1" value="&lt;font style=&quot;font-size: 20px&quot;&gt;Projeto A3&lt;/font&gt;" style="text;html=1;align=center;verticalAlign=middle;resizable=0;points=[];autosize=1;strokeColor=none;fillColor=none;" vertex="1" parent="1">
          <mxGeometry y="20" width="110" height="20" as="geometry" />
        </mxCell>
        <mxCell id="8WoS_qMKlVvMBO30Ixbd-2" value="Realizar a documentação de um sistema: (app, web, e-commerce, .exe)&lt;br&gt;- Sistema que já existe(Grupo deve sugerir melhorias)&amp;nbsp;&lt;br&gt;- Sitema inovador(Grupo cria um sistema inovador)&lt;br&gt;&lt;br&gt;Parte técnica:&lt;br&gt;Princípios ágeis:&lt;br&gt;Itens de Backlog - Citar autores explicando cada termo técnico principal&lt;br&gt;Sprints&lt;br&gt;User Cases&lt;br&gt;&lt;br&gt;Diagramas:&lt;br&gt;Diagtama de Caso de Uso&amp;nbsp;&lt;br&gt;Diagrama de Atividades&lt;br&gt;Diagrama de Classes&lt;br&gt;&lt;br&gt;Banco de Dados:&lt;br&gt;Modelas MER/DER&lt;br&gt;Criar o BD - Demonstrar com script de criação&lt;br&gt;Criação das tabelas&lt;br&gt;Movimentações com dados - Demonstrando através de script&lt;br&gt;&lt;br&gt;Estrutura acadêmica:&lt;br&gt;Capa&lt;br&gt;Sumário&lt;br&gt;Introdução(Problema de pesquisa, objetivos gerais e específicos, justificativa)&lt;br&gt;Desenvolvimento(Toda parte técnica)&lt;br&gt;Conclusão&lt;br&gt;Referências bibliográficas&lt;br&gt;&lt;br&gt;&lt;br&gt;PARA CADA TERMO TÉCNICO, ANTES DE DESENVOLVER DEVE-SE&lt;br&gt;EXPLICAR SUA NECESSIDADE" style="text;html=1;align=left;verticalAlign=middle;resizable=0;points=[];autosize=1;strokeColor=none;fillColor=none;fontSize=20;" vertex="1" parent="1">
          <mxGeometry x="10" y="60" width="700" height="770" as="geometry" />
        </mxCell>
      </root>
    </mxGraphModel>
  </diagram>
</mxfile>
